<?xml version="1.0" standalone="no"?>
<!DOCTYPE svg PUBLIC "-//W3C//DTD SVG 20010904//EN"
 "http://www.w3.org/TR/2001/REC-SVG-20010904/DTD/svg10.dtd">
<svg version="1.0" xmlns="http://www.w3.org/2000/svg"
 width="700.000000pt" height="700.000000pt" viewBox="0 0 700.000000 700.000000"
 preserveAspectRatio="xMidYMid meet">
<metadata>
Created by potrace 1.11, written by Peter Selinger 2001-2013
</metadata>
<g transform="translate(0.000000,700.000000) scale(0.100000,-0.100000)"
fill="#000000" stroke="none">
<path d="M1075 6119 c-239 -26 -445 -139 -596 -329 -73 -91 -130 -207 -166
-340 -17 -61 -18 -168 -18 -1925 0 -1023 3 -1883 7 -1911 44 -302 269 -576
563 -684 151 -56 -25 -53 2600 -54 2498 -2 2498 -2 2625 38 289 89 506 318
593 623 l22 78 2 1855 c2 1977 3 1922 -45 2060 -109 312 -364 526 -697 586
-49 9 -4807 12 -4890 3z m4850 -595 c93 -29 164 -105 189 -202 17 -67 15
-3598 -2 -3658 -23 -81 -105 -163 -191 -192 -25 -9 -647 -12 -2417 -12 -2647
0 -2432 -6 -2521 66 -52 43 -83 92 -98 158 -13 60 -14 3578 -1 3636 19 80 73
148 151 188 38 20 71 27 135 31 47 4 1124 5 2393 4 2140 -1 2312 -3 2362 -19z"/>
<path d="M1670 4946 c-60 -21 -76 -30 -112 -62 -144 -127 -125 -359 36 -462
46 -29 125 -50 174 -46 100 8 197 72 242 160 35 68 36 187 2 256 -29 58 -82
111 -140 138 -53 25 -154 33 -202 16z"/>
<path d="M5161 4943 c-156 -53 -237 -215 -185 -370 62 -185 292 -257 446 -140
217 165 115 506 -156 522 -37 2 -78 -2 -105 -12z"/>
<path d="M1657 3776 c-62 -23 -112 -61 -146 -112 -41 -62 -54 -115 -48 -189 8
-101 65 -187 158 -237 63 -33 195 -33 257 0 56 30 104 78 133 132 31 60 34
197 5 250 -58 108 -137 161 -250 167 -45 2 -85 -2 -109 -11z"/>
<path d="M5157 3776 c-63 -23 -116 -64 -148 -114 -39 -62 -52 -114 -46 -187 8
-102 65 -187 159 -237 62 -33 194 -33 256 0 99 53 152 136 160 248 4 61 1 80
-20 125 -34 73 -66 110 -129 144 -64 34 -170 44 -232 21z"/>
<path d="M1678 2615 c-217 -57 -291 -333 -132 -488 127 -123 336 -107 437 34
159 221 -43 521 -305 454z"/>
<path d="M5159 2609 c-131 -47 -208 -162 -196 -298 8 -106 70 -197 165 -243
65 -31 177 -31 243 1 202 96 227 371 46 502 -74 53 -172 68 -258 38z"/>
</g>
</svg>
